<svg xmlns="http://www.w3.org/2000/svg" viewBox="0 0 512 512" role="img" aria-label="HOFILIGHT ONE H">
<defs>
  <linearGradient id="bg" x1="0" y1="0" x2="1" y2="1"><stop stop-color="#061523"/><stop offset=".55" stop-color="#0b2942"/><stop offset="1" stop-color="#04111d"/></linearGradient>
  <linearGradient id="blue" x1="0" y1="0" x2="1" y2="1"><stop stop-color="#ffffff"/><stop offset=".42" stop-color="#d9edff"/><stop offset=".43" stop-color="#1d8fff"/><stop offset="1" stop-color="#0068d8"/></linearGradient>
  <linearGradient id="edge" x1="0" y1="0" x2="1" y2="1"><stop stop-color="#1594ff"/><stop offset="1" stop-color="#0062cb"/></linearGradient>
  <filter id="glow"><feGaussianBlur stdDeviation="5" result="b"/><feMerge><feMergeNode in="b"/><feMergeNode in="SourceGraphic"/></feMerge></filter>
</defs>
<rect x="10" y="10" width="492" height="492" rx="104" fill="url(#bg)"/>
<rect x="29" y="29" width="454" height="454" rx="86" fill="none" stroke="url(#edge)" stroke-width="8"/>
<g filter="url(#glow)">
  <path d="M150 142h74l-34 86h102l34-86h74l-91 228h-74l35-88H168l-35 88H59l91-228Z" fill="url(#blue)"/>
  <path d="M188 228h104l-18 54H168l20-54Z" fill="#eaf6ff" opacity=".95"/>
</g>
<path d="M92 404c48-38 87-56 117-56 25 0 44 10 63 30 18-15 37-23 57-23 28 0 59 16 92 49-54-13-105-18-153-16-55 2-114 7-176 16Z" fill="#9fd2ff" opacity=".28"/>
</svg>