<svg xmlns="http://www.w3.org/2000/svg" viewBox="0 0 512 512" role="img" aria-label="RESERVE shield leaf">
<rect width="512" height="512" rx="112" fill="#173f35"/>
<path d="M256 78 390 126v103c0 91-53 162-134 205-81-43-134-114-134-205V126l134-48Z" fill="none" stroke="#f5f1e8" stroke-width="28" stroke-linejoin="round"/>
<path d="M323 153c-82 8-139 48-151 116-9 50 17 91 61 104 54 16 103-23 109-91 4-43-8-88-19-129Z" fill="#f5f1e8"/>
<path d="M184 353c33-71 74-119 132-166-38 55-63 111-78 174" fill="none" stroke="#173f35" stroke-width="18" stroke-linecap="round"/>
</svg>
